<?xml version="1.0" encoding="utf-8"?>
<!-- Generator: Adobe Illustrator 23.0.1, SVG Export Plug-In . SVG Version: 6.00 Build 0)  -->
<svg version="1.1" id="Layer_1" xmlns="http://www.w3.org/2000/svg" xmlns:xlink="http://www.w3.org/1999/xlink" x="0px" y="0px"
	 viewBox="0 0 250 250" style="enable-background:new 0 0 250 250;" xml:space="preserve">
<style type="text/css">
	.st0{display:none;}
	.st1{display:inline;}
	.st2{fill:url(#SVGID_1_);}
	.st3{fill:url(#SVGID_2_);}
	.st4{fill:url(#SVGID_3_);}
	.st5{fill:url(#SVGID_4_);}
	.st6{fill:url(#SVGID_5_);}
	.st7{fill:url(#SVGID_6_);}
	.st8{fill:url(#SVGID_7_);}
	.st9{fill:url(#SVGID_8_);}
	.st10{fill:url(#SVGID_9_);}
	.st11{fill:#005748;}
	.st12{opacity:0.2;clip-path:url(#SVGID_11_);fill:url(#SVGID_12_);}
	.st13{opacity:0.2;clip-path:url(#SVGID_14_);fill:url(#SVGID_15_);}
	.st14{opacity:0.2;clip-path:url(#SVGID_17_);fill:url(#SVGID_18_);}
	.st15{fill:#231F20;}
	.st16{fill:#FFFFFF;}
</style>
<g class="st0">
	<g class="st1">
		<linearGradient id="SVGID_1_" gradientUnits="userSpaceOnUse" x1="57.5477" y1="175.043" x2="57.5477" y2="184.8821">
			<stop  offset="0" style="stop-color:#005748"/>
			<stop  offset="1" style="stop-color:#4A7267"/>
		</linearGradient>
		<path class="st2" d="M56.48,175.04c0.66,0,1.31,0.13,1.91,0.38c0.59,0.25,1.11,0.6,1.56,1.05c0.46,0.46,0.81,0.98,1.05,1.57
			c0.27,0.6,0.39,1.25,0.39,1.91c0,0.67-0.13,1.32-0.39,1.92c-0.24,0.59-0.59,1.11-1.05,1.56c-0.45,0.45-0.97,0.81-1.56,1.05
			c-0.6,0.27-1.25,0.39-1.91,0.39H54.5v-0.01h-0.8v-9.83H56.48z M56.48,182.92c1.63,0,2.95-1.33,2.95-2.96
			c0-1.63-1.32-2.95-2.95-2.95h-0.81v5.91H56.48z"/>
		<linearGradient id="SVGID_2_" gradientUnits="userSpaceOnUse" x1="73.2429" y1="175.043" x2="73.2429" y2="184.8821">
			<stop  offset="0" style="stop-color:#005748"/>
			<stop  offset="1" style="stop-color:#4A7267"/>
		</linearGradient>
		<path class="st3" d="M76.52,177.01h-6.56v-1.96h6.56V177.01z M69.97,178.83h5.43v1.96h-5.43V178.83z M69.97,182.92h6.51v1.96
			h-6.51V182.92z"/>
		<linearGradient id="SVGID_3_" gradientUnits="userSpaceOnUse" x1="88.6478" y1="174.9025" x2="88.6478" y2="185.0787">
			<stop  offset="0" style="stop-color:#005748"/>
			<stop  offset="1" style="stop-color:#4A7267"/>
		</linearGradient>
		<path class="st4" d="M88.5,180.71c-0.32-0.08-0.93-0.24-1.49-0.62c-0.79-0.52-1.22-1.28-1.26-2.22c-0.04-0.79,0.21-1.47,0.72-2.01
			c0.73-0.76,1.78-0.97,2.29-0.97c1.43,0,2.23,0.52,2.95,0.98l0.32,0.21L91,177.77l-0.35-0.22c-0.63-0.41-1.04-0.67-1.89-0.67
			c-0.13,0-0.62,0.1-0.87,0.37c-0.08,0.08-0.18,0.24-0.17,0.56c0.01,0.51,0.37,0.79,1.26,1.01c0.11,0.03,0.2,0.06,0.28,0.08
			c0.94,0.32,1.67,0.76,2.18,1.31c0.51,0.56,0.77,1.22,0.77,1.92c0,0.69-0.29,1.4-0.79,1.95c-0.58,0.65-1.38,1.01-2.26,1.01
			c-0.43,0-1.02-0.03-1.73-0.24c-0.88-0.28-1.67-0.77-2.34-1.49l1.43-1.35c1.04,1.11,2.2,1.11,2.64,1.11c0.81,0,1.08-0.74,1.08-1
			c0-0.53-0.6-1.03-1.63-1.38l-0.04-0.01L88.5,180.71z"/>
		<linearGradient id="SVGID_4_" gradientUnits="userSpaceOnUse" x1="101.7589" y1="175.043" x2="101.7589" y2="184.8684">
			<stop  offset="0" style="stop-color:#005748"/>
			<stop  offset="1" style="stop-color:#4A7267"/>
		</linearGradient>
		<path class="st5" d="M100.78,184.87v-9.83h1.97v9.83H100.78z"/>
		<linearGradient id="SVGID_5_" gradientUnits="userSpaceOnUse" x1="116.2774" y1="174.9025" x2="116.2774" y2="185.0501">
			<stop  offset="0" style="stop-color:#005748"/>
			<stop  offset="1" style="stop-color:#4A7267"/>
		</linearGradient>
		<path class="st6" d="M121.25,178.82v1c0,3.09-2.25,5.24-4.88,5.24h-0.01c-2.82-0.03-5.07-2.29-5.04-5.11
			c0.03-2.79,2.3-5.04,5.09-5.04h0.04c1.19,0.01,2.27,0.44,3.13,1.12l-1.42,1.39c-0.51-0.35-1.09-0.53-1.73-0.55h-0.03
			c-0.83,0-1.61,0.32-2.2,0.91c-0.59,0.57-0.93,1.36-0.93,2.19c-0.01,0.83,0.31,1.63,0.88,2.22c0.59,0.6,1.38,0.94,2.2,0.94
			c1.43,0,2.65-1.03,3.02-2.34h-2.22v-1.97H121.25z"/>
		<linearGradient id="SVGID_6_" gradientUnits="userSpaceOnUse" x1="134.1065" y1="175.043" x2="134.1065" y2="184.8821">
			<stop  offset="0" style="stop-color:#005748"/>
			<stop  offset="1" style="stop-color:#4A7267"/>
		</linearGradient>
		<path class="st7" d="M137.59,184.88l-5.53-5.74v5.74h-1.97v-9.84h0.62l5.43,5.5v-5.5h1.97v9.84H137.59z"/>
		<linearGradient id="SVGID_7_" gradientUnits="userSpaceOnUse" x1="161.0145" y1="175.043" x2="161.0145" y2="184.8684">
			<stop  offset="0" style="stop-color:#005748"/>
			<stop  offset="1" style="stop-color:#4A7267"/>
		</linearGradient>
		<path class="st8" d="M160.17,182.92h3.66v1.95h-5.63v-9.83h1.97V182.92z"/>
		<linearGradient id="SVGID_8_" gradientUnits="userSpaceOnUse" x1="177.0948" y1="175.043" x2="177.0948" y2="184.8821">
			<stop  offset="0" style="stop-color:#005748"/>
			<stop  offset="1" style="stop-color:#4A7267"/>
		</linearGradient>
		<path class="st9" d="M177.57,175.04l4.65,9.84h-2.18l-2.81-5.98l-3.05,5.98h-2.2l5.01-9.84H177.57z"/>
		<linearGradient id="SVGID_9_" gradientUnits="userSpaceOnUse" x1="193.1888" y1="175.043" x2="193.1888" y2="184.8684">
			<stop  offset="0" style="stop-color:#005748"/>
			<stop  offset="1" style="stop-color:#4A7267"/>
		</linearGradient>
		<path class="st10" d="M193.29,183.2c0.66,0,1.21-0.52,1.21-1.18c0-0.66-0.55-1.19-1.21-1.19h-3.21v-5.78h2.68
			c1.59,0,2.88,1.29,2.88,2.88c0,0.6-0.18,1.15-0.51,1.61c0.72,0.55,1.16,1.4,1.16,2.36c0,1.66-1.33,2.98-2.98,2.98h-0.7v-1.67
			H193.29z M192.68,178.93c0.55,0,1.14-0.45,1.14-1.14s-0.59-1.11-1.14-1.11h-0.86v2.25H192.68z"/>
	</g>
	<g class="st1">
		<g>
			<path class="st11" d="M200,170.72l-17.86-30.93c-0.51,2.41-1.52,4.71-3.04,6.71l-11.06,14.62h14.81v9.6H200z"/>
			<path class="st11" d="M99.04,119.27v10.87H83.41l-0.96,7.07c0.64-0.13,1.16-0.13,1.61-0.13c9.71,0,17.55,7.72,17.55,17.42
				c0,7.31-4.39,13.54-10.67,16.22h16.82v-9.49h10.89v9.49h10.6V130.3h-8.68v-11.03h19.84v51.45h6.67l23.27-30.88
				c0.78-1.04,1.16-2.26,1.16-3.62c0-3.3-2.59-5.89-5.95-5.89c-3.36,0-5.95,2.52-5.95,5.89h-11c0-9.32,7.7-16.95,16.95-16.95
				c1.81,0,3.56,0.3,5.2,0.84l-16.95-29.35l-12.01,16.57l-30.73-42.4l-31.38,54.35H99.04z"/>
			<path class="st11" d="M67.15,159.46l10.35-4.12c0.45,3.34,3.28,5.59,6.56,5.59c3.67,0,6.62-2.96,6.62-6.69
				c0-3.67-2.96-6.62-6.62-6.62c-2.31,0-4.37,1.09-5.72,3.09l-8.04-6.37l2.1-12.42L50,170.72h27.15
				C72.42,168.72,68.65,164.68,67.15,159.46z"/>
		</g>
		<g>
			<g>
				<defs>
					<path id="SVGID_10_" d="M99.04,119.27v10.87H83.41l-0.96,7.07c0.64-0.13,1.16-0.13,1.61-0.13c9.71,0,17.55,7.72,17.55,17.42
						c0,7.31-4.39,13.54-10.67,16.22h16.82v-9.49h10.89v9.49h10.6V130.3h-8.68v-11.03h19.84v51.45h6.67l23.27-30.88
						c0.78-1.04,1.16-2.26,1.16-3.62c0-3.3-2.59-5.89-5.95-5.89c-3.36,0-5.95,2.52-5.95,5.89h-11c0-9.32,7.7-16.95,16.95-16.95
						c1.81,0,3.56,0.3,5.2,0.84l-16.95-29.35l-12.01,16.57l-30.73-42.4l-31.38,54.35H99.04z"/>
				</defs>
				<clipPath id="SVGID_11_">
					<use xlink:href="#SVGID_10_"  style="overflow:visible;"/>
				</clipPath>
				<linearGradient id="SVGID_12_" gradientUnits="userSpaceOnUse" x1="121.6928" y1="149.4604" x2="121.6928" y2="40.8223">
					<stop  offset="0" style="stop-color:#FFFFFF"/>
					<stop  offset="0.0896" style="stop-color:#FFFFFF;stop-opacity:0.9104"/>
					<stop  offset="1" style="stop-color:#FFFFFF;stop-opacity:0"/>
				</linearGradient>
				<path class="st12" d="M176.47,130.02l-51.5-89.2L66.91,141.39C110.96,158.93,154.22,144.51,176.47,130.02z"/>
			</g>
			<g>
				<defs>
					<path id="SVGID_13_" d="M67.15,159.46l10.35-4.12c0.45,3.34,3.28,5.59,6.56,5.59c3.67,0,6.62-2.96,6.62-6.69
						c0-3.67-2.96-6.62-6.62-6.62c-2.31,0-4.37,1.09-5.72,3.09l-8.04-6.37l2.1-12.42L50,170.72h27.15
						C72.42,168.72,68.65,164.68,67.15,159.46z"/>
				</defs>
				<clipPath id="SVGID_14_">
					<use xlink:href="#SVGID_13_"  style="overflow:visible;"/>
				</clipPath>
				<linearGradient id="SVGID_15_" gradientUnits="userSpaceOnUse" x1="121.6928" y1="149.4604" x2="121.6928" y2="40.8223">
					<stop  offset="0" style="stop-color:#FFFFFF"/>
					<stop  offset="0.0896" style="stop-color:#FFFFFF;stop-opacity:0.9104"/>
					<stop  offset="1" style="stop-color:#FFFFFF;stop-opacity:0"/>
				</linearGradient>
				<path class="st13" d="M176.47,130.02l-51.5-89.2L66.91,141.39C110.96,158.93,154.22,144.51,176.47,130.02z"/>
			</g>
			<g>
				<defs>
					<path id="SVGID_16_" d="M99.04,119.27v10.87H83.41l-0.96,7.07c0.64-0.13,1.16-0.13,1.61-0.13c9.71,0,17.55,7.72,17.55,17.42
						c0,7.31-4.39,13.54-10.67,16.22h16.82v-9.49h10.89v9.49h10.6V130.3h-8.68v-11.03h19.84v51.45h6.67l23.27-30.88
						c0.78-1.04,1.16-2.26,1.16-3.62c0-3.3-2.59-5.89-5.95-5.89c-3.36,0-5.95,2.52-5.95,5.89h-11c0-9.32,7.7-16.95,16.95-16.95
						c1.81,0,3.56,0.3,5.2,0.84l-16.95-29.35l-12.01,16.57l-30.73-42.4l-31.38,54.35H99.04z"/>
				</defs>
				<clipPath id="SVGID_17_">
					<use xlink:href="#SVGID_16_"  style="overflow:visible;"/>
				</clipPath>
				<linearGradient id="SVGID_18_" gradientUnits="userSpaceOnUse" x1="122.9107" y1="110.0024" x2="122.9107" y2="40.8223">
					<stop  offset="0" style="stop-color:#FFFFFF"/>
					<stop  offset="0.0896" style="stop-color:#FFFFFF;stop-opacity:0.9104"/>
					<stop  offset="1" style="stop-color:#FFFFFF;stop-opacity:0"/>
				</linearGradient>
				<path class="st14" d="M157.8,97.62L125,40.82l-36.98,64.04C116.08,116.03,143.63,106.85,157.8,97.62z"/>
			</g>
		</g>
	</g>
</g>
<rect class="st15" width="250" height="250"/>
<g>
	<g>
		<path class="st16" d="M56.48,175.04c0.66,0,1.31,0.13,1.91,0.38c0.59,0.25,1.11,0.6,1.56,1.05c0.46,0.46,0.81,0.98,1.05,1.57
			c0.27,0.6,0.39,1.25,0.39,1.91c0,0.67-0.13,1.32-0.39,1.92c-0.24,0.59-0.59,1.11-1.05,1.56c-0.45,0.45-0.97,0.81-1.56,1.05
			c-0.6,0.27-1.25,0.39-1.91,0.39H54.5v-0.01h-0.8v-9.83H56.48z M56.48,182.92c1.63,0,2.95-1.33,2.95-2.96
			c0-1.63-1.32-2.95-2.95-2.95h-0.81v5.91H56.48z"/>
		<path class="st16" d="M76.52,177.01h-6.56v-1.96h6.56V177.01z M69.97,178.83h5.43v1.96h-5.43V178.83z M69.97,182.92h6.51v1.96
			h-6.51V182.92z"/>
		<path class="st16" d="M88.5,180.71c-0.32-0.08-0.93-0.24-1.49-0.62c-0.79-0.52-1.22-1.28-1.26-2.22
			c-0.04-0.79,0.21-1.47,0.72-2.01c0.73-0.76,1.78-0.97,2.29-0.97c1.43,0,2.23,0.52,2.95,0.98l0.32,0.21L91,177.77l-0.35-0.22
			c-0.63-0.41-1.04-0.67-1.89-0.67c-0.13,0-0.62,0.1-0.87,0.37c-0.08,0.08-0.18,0.24-0.17,0.56c0.01,0.51,0.37,0.79,1.26,1.01
			c0.11,0.03,0.2,0.06,0.28,0.08c0.94,0.32,1.67,0.76,2.18,1.31c0.51,0.56,0.77,1.22,0.77,1.92c0,0.69-0.29,1.4-0.79,1.95
			c-0.58,0.65-1.38,1.01-2.26,1.01c-0.43,0-1.02-0.03-1.73-0.24c-0.88-0.28-1.67-0.77-2.34-1.49l1.43-1.35
			c1.04,1.11,2.2,1.11,2.64,1.11c0.81,0,1.08-0.74,1.08-1c0-0.53-0.6-1.03-1.63-1.38l-0.04-0.01L88.5,180.71z"/>
		<path class="st16" d="M100.78,184.87v-9.83h1.97v9.83H100.78z"/>
		<path class="st16" d="M121.25,178.82v1c0,3.09-2.25,5.24-4.88,5.24h-0.01c-2.82-0.03-5.07-2.29-5.04-5.11
			c0.03-2.79,2.3-5.04,5.09-5.04h0.04c1.19,0.01,2.27,0.44,3.13,1.12l-1.42,1.39c-0.51-0.35-1.09-0.53-1.73-0.55h-0.03
			c-0.83,0-1.61,0.32-2.2,0.91c-0.59,0.57-0.93,1.36-0.93,2.19c-0.01,0.83,0.31,1.63,0.88,2.22c0.59,0.6,1.38,0.94,2.2,0.94
			c1.43,0,2.65-1.03,3.02-2.34h-2.22v-1.97H121.25z"/>
		<path class="st16" d="M137.59,184.88l-5.53-5.74v5.74h-1.97v-9.84h0.62l5.43,5.5v-5.5h1.97v9.84H137.59z"/>
		<path class="st16" d="M160.17,182.92h3.66v1.95h-5.63v-9.83h1.97V182.92z"/>
		<path class="st16" d="M177.57,175.04l4.65,9.84h-2.18l-2.81-5.98l-3.05,5.98h-2.2l5.01-9.84H177.57z"/>
		<path class="st16" d="M193.29,183.2c0.66,0,1.21-0.52,1.21-1.18c0-0.66-0.55-1.19-1.21-1.19h-3.21v-5.78h2.68
			c1.59,0,2.88,1.29,2.88,2.88c0,0.6-0.18,1.15-0.51,1.61c0.72,0.55,1.16,1.4,1.16,2.36c0,1.66-1.33,2.98-2.98,2.98h-0.7v-1.67
			H193.29z M192.68,178.93c0.55,0,1.14-0.45,1.14-1.14s-0.59-1.11-1.14-1.11h-0.86v2.25H192.68z"/>
	</g>
	<g>
		<g>
			<path class="st16" d="M200,170.72l-17.86-30.93c-0.51,2.41-1.52,4.71-3.04,6.71l-11.06,14.62h14.81v9.6H200z"/>
			<path class="st16" d="M99.04,119.27v10.87H83.41l-0.96,7.07c0.64-0.13,1.16-0.13,1.61-0.13c9.71,0,17.55,7.72,17.55,17.42
				c0,7.31-4.39,13.54-10.67,16.22h16.82v-9.49h10.89v9.49h10.6V130.3h-8.68v-11.03h19.84v51.45h6.67l23.27-30.88
				c0.78-1.04,1.16-2.26,1.16-3.62c0-3.3-2.59-5.89-5.95-5.89c-3.36,0-5.95,2.52-5.95,5.89h-11c0-9.32,7.7-16.95,16.95-16.95
				c1.81,0,3.56,0.3,5.2,0.84l-16.95-29.35l-12.01,16.57l-30.73-42.4l-31.38,54.35H99.04z"/>
			<path class="st16" d="M67.15,159.46l10.35-4.12c0.45,3.34,3.28,5.59,6.56,5.59c3.67,0,6.62-2.96,6.62-6.69
				c0-3.67-2.96-6.62-6.62-6.62c-2.31,0-4.37,1.09-5.72,3.09l-8.04-6.37l2.1-12.42L50,170.72h27.15
				C72.42,168.72,68.65,164.68,67.15,159.46z"/>
		</g>
	</g>
</g>
</svg>
